<svg version="1.2" xmlns="http://www.w3.org/2000/svg" viewBox="0 0 1304 1487" width="1304" height="1487">
	<title>substack_wordmark-svg</title>
	<style>
		.s0 { fill: #ff6719 } 
	</style>
	<g id="#ff6719ff">
		<path id="Layer" class="s0" d="m0 0.2c434.6 0.1 869.2-0.1 1303.8 0.1-0.1 58.6 0 117.2-0.1 175.8-434.6-0.2-869.1 0-1303.7-0.1z"/>
		<path id="Layer" class="s0" d="m0 334.7q651.8 0 1303.8 0c0 58.6-0.1 117.3 0 175.9-434.6-0.2-869.2-0.1-1303.8-0.1z"/>
		<path id="Layer" class="s0" d="m0 669.8c434.6 0.1 869.1-0.2 1303.7 0.2-0.3 272.3 0.9 544.7-0.6 817h-2.1c0.6-0.6 1.5-1.9 2-2.5-101.5-53.8-200.8-111.9-301.4-167.3-116.7-65.4-233.4-130.4-349.9-195.9-216.9 122.5-435.2 242.5-651.6 365.7h-0.1z"/>
	</g>
</svg>